<svg xmlns="http://www.w3.org/2000/svg" viewBox="0 0 723.54 722.44"><defs><style>.cls-1{fill:#ff6b00;}</style></defs><g id="Layer_2" data-name="Layer 2"><g id="Layer_1-2" data-name="Layer 1"><path class="cls-1" d="M582.08,546.47l65.84-114.18h68.79a363.79,363.79,0,0,0-84.49-311.2l-12.75,22.36H485.81L419.88,29.26l12.81-22.1A358.84,358.84,0,0,0,118.15,95l38.09,66.11L90.05,275.31h-80A366.81,366.81,0,0,0,0,360.16,363,363,0,0,0,86.11,595.39l18-31.24H237.93l65.93,114.1L283.53,713.6a362.4,362.4,0,0,0,78.84,8.84,357.52,357.52,0,0,0,258-109.59ZM428,476.24H295.7L229.5,361.6l66.2-114.55H428L494.18,361.6Z"/></g></g></svg>