<svg xmlns="http://www.w3.org/2000/svg" viewBox="0 0 3651.72 640.41"><defs><style>.cls-1,.cls-2{fill:#fff;}.cls-2{font-size:337.94px;font-family:Sora-Bold, Sora;font-weight:700;}.cls-3{letter-spacing:-0.02em;}.cls-4{letter-spacing:-0.02em;}</style></defs><g id="Layer_2" data-name="Layer 2"><g id="Layer_1-2" data-name="Layer 1"><path class="cls-1" d="M247.14,519.88A33.83,33.83,0,0,1,239,542.57q-8.22,9.66-25.54,15.56T167.92,564a232.1,232.1,0,0,1-73.38-12,224.83,224.83,0,0,1-62.25-30.81L0,592.75q27.6,21.13,73.08,34.34a338.22,338.22,0,0,0,94.8,13.32q58.11,0,96.85-17.62t57.84-46.37a112.41,112.41,0,0,0,19-63.44l-95.48-1.56A35.48,35.48,0,0,1,247.14,519.88Z"/><path class="cls-1" d="M159.53,129.84l15.64-27.13h16.35a86.43,86.43,0,0,0-20.08-73.94l-3,5.31H136.65L121,7l3-5.25A85.27,85.27,0,0,0,49.3,22.57l9.05,15.71L42.62,65.41h-19a87.23,87.23,0,0,0-2.39,20.16,86.2,86.2,0,0,0,20.46,55.89L46,134H77.76l15.66,27.11-4.83,8.4a86.2,86.2,0,0,0,18.74,2.1,85,85,0,0,0,61.29-26Zm-36.61-16.69H91.48L75.76,85.91,91.48,58.7h31.44l15.72,27.21Z"/><path class="cls-1" d="M507.62,286.21h-167V177.3h167V101.22H245.17V222.4a316.21,316.21,0,0,0-63.7-6.45Q123.38,216,85,233.26T27.77,279.54A115.8,115.8,0,0,0,9,343.79q0,32.26,12.68,53.68a99.43,99.43,0,0,0,34,34.61,205.07,205.07,0,0,0,46.93,21.14q25.53,7.92,50.72,13.48T200,478.45q21.4,6.15,34.32,15.83a31,31,0,0,1,10.9,14.33L340.84,362.3H507.62ZM245.17,404.38q-24-7.68-48.49-13-25.81-5.53-46.94-11.14t-34.05-15.56a31.72,31.72,0,0,1-12.92-26.39,38.2,38.2,0,0,1,7.93-23.48q7.93-10.57,24.93-16.74t45.21-6.16a216.56,216.56,0,0,1,56.36,7.93c2.66.72,5.33,1.5,8,2.33Z"/><text class="cls-2" transform="translate(656.53 418.38) scale(1.07 1)">SPO<tspan class="cls-3" x="742.79" y="0">R</tspan><tspan class="cls-4" x="982.73" y="0">T</tspan><tspan x="1185.83" y="0">SFUSION</tspan></text></g></g></svg>